<svg version="1.1" id="Layer_1" xmlns="http://www.w3.org/2000/svg" xmlns:xlink="http://www.w3.org/1999/xlink" x="0px" y="0px"
	 width="100%" viewBox="0 0 310 310" enable-background="new 0 0 310 310" xml:space="preserve">
<path fill="#012169" opacity="1.000000" stroke="none" 
	d="
M174.000000,311.000000 
	C116.000031,311.000000 58.500053,311.000000 1.000062,311.000000 
	C1.000041,207.666748 1.000041,104.333488 1.000021,1.000173 
	C104.333214,1.000115 207.666428,1.000115 310.999725,1.000057 
	C310.999817,104.333160 310.999817,207.666321 310.999908,310.999756 
	C265.500000,311.000000 220.000000,311.000000 174.000000,311.000000 
M130.513504,43.049847 
	C102.378304,43.741947 74.241707,44.385544 46.109890,45.195034 
	C43.018848,45.283978 39.779011,45.907764 36.954037,47.101761 
	C35.565956,47.688446 34.129406,50.229214 34.272057,51.738487 
	C34.394329,53.032139 36.559757,54.581783 38.138409,55.174698 
	C40.100586,55.911652 42.383507,55.846897 44.536823,56.012119 
	C49.518726,56.394382 54.516502,56.596729 59.488762,57.071732 
	C67.994751,57.884308 69.483337,59.563503 69.483498,67.868675 
	C69.484528,121.677582 69.494232,175.486481 69.462196,229.295380 
	C69.459923,233.121216 69.344696,236.967834 68.940239,240.768417 
	C67.943924,250.130630 64.004845,254.208069 54.779034,256.182587 
	C51.058163,256.978943 47.191784,257.708679 43.840858,259.373169 
	C42.045635,260.264923 41.204288,263.077026 39.932491,265.022552 
	C41.819939,266.016388 43.701477,267.841827 45.595890,267.855316 
	C52.578819,267.904968 59.564335,267.120300 66.551895,267.070221 
	C98.201111,266.843536 129.854050,266.952576 161.499619,266.509979 
	C171.108597,266.375580 180.897125,265.797760 190.261078,263.810242 
	C224.196838,256.607330 250.895569,238.949615 267.423462,207.662857 
	C277.222931,189.112854 278.423950,169.235977 275.990356,148.849640 
	C270.799835,105.367874 249.357239,73.643059 208.657669,55.964180 
	C184.041916,45.271706 158.049591,42.425297 130.513504,43.049847 
z"/>
<path fill="#FBFCFD" opacity="1.000000" stroke="none" 
	d="
M131.011139,43.038094 
	C158.049591,42.425297 184.041916,45.271706 208.657669,55.964180 
	C249.357239,73.643059 270.799835,105.367874 275.990356,148.849640 
	C278.423950,169.235977 277.222931,189.112854 267.423462,207.662857 
	C250.895569,238.949615 224.196838,256.607330 190.261078,263.810242 
	C180.897125,265.797760 171.108597,266.375580 161.499619,266.509979 
	C129.854050,266.952576 98.201111,266.843536 66.551895,267.070221 
	C59.564335,267.120300 52.578819,267.904968 45.595890,267.855316 
	C43.701477,267.841827 41.819939,266.016388 39.932487,265.022552 
	C41.204288,263.077026 42.045635,260.264923 43.840858,259.373169 
	C47.191784,257.708679 51.058163,256.978943 54.779034,256.182587 
	C64.004845,254.208069 67.943924,250.130630 68.940239,240.768417 
	C69.344696,236.967834 69.459923,233.121216 69.462196,229.295380 
	C69.494232,175.486481 69.484528,121.677582 69.483498,67.868675 
	C69.483337,59.563503 67.994751,57.884308 59.488762,57.071732 
	C54.516502,56.596729 49.518726,56.394382 44.536823,56.012119 
	C42.383507,55.846897 40.100586,55.911652 38.138409,55.174698 
	C36.559757,54.581783 34.394329,53.032139 34.272057,51.738487 
	C34.129406,50.229214 35.565956,47.688446 36.954037,47.101761 
	C39.779011,45.907764 43.018848,45.283978 46.109890,45.195034 
	C74.241707,44.385544 102.378304,43.741947 131.011139,43.038094 
M171.011337,61.367012 
	C166.882141,60.099136 162.797089,58.657845 158.615952,57.594070 
	C142.425568,53.474865 126.081757,52.335968 109.666832,56.037567 
	C102.814667,57.582745 100.948280,60.181995 100.946503,66.726532 
	C100.932503,118.220879 100.940208,169.715225 100.939575,221.209564 
	C100.939400,235.489502 107.676254,245.619339 120.220100,251.953262 
	C129.964905,256.873810 140.517227,258.844330 151.259705,257.705322 
	C207.246338,251.769196 257.495605,206.357941 239.281189,133.072098 
	C230.334274,97.074120 205.374023,74.961166 171.011337,61.367012 
z"/>
<path fill="#022169" opacity="1.000000" stroke="none" 
	d="
M171.360672,61.543274 
	C205.374023,74.961166 230.334274,97.074120 239.281189,133.072098 
	C257.495605,206.357941 207.246338,251.769196 151.259705,257.705322 
	C140.517227,258.844330 129.964905,256.873810 120.220100,251.953262 
	C107.676254,245.619339 100.939400,235.489502 100.939575,221.209564 
	C100.940208,169.715225 100.932503,118.220879 100.946503,66.726532 
	C100.948280,60.181995 102.814667,57.582745 109.666832,56.037567 
	C126.081757,52.335968 142.425568,53.474865 158.615952,57.594070 
	C162.797089,58.657845 166.882141,60.099136 171.360672,61.543274 
z"/>
</svg>